<?xml version="1.0" encoding="iso-8859-1"?>
<!-- Generator: Adobe Illustrator 19.0.0, SVG Export Plug-In . SVG Version: 6.00 Build 0)  -->
<svg xmlns="http://www.w3.org/2000/svg" xmlns:xlink="http://www.w3.org/1999/xlink" version="1.1" id="Layer_1" x="0px" y="0px" viewBox="0 0 512 512" style="enable-background:new 0 0 512 512;" xml:space="preserve" width="512px" height="512px">
<g>
	<g>
		<path d="M503.708,69.42h-9.048c1.982-6.767,3.065-13.915,3.065-21.314v-2.289c0-4.579-3.713-8.292-8.292-8.292    s-8.292,3.712-8.292,8.292v2.289c0,30.304-22.82,55.362-52.175,58.935c17.13-13.941,28.097-35.178,28.097-58.935v-2.289    c0-4.579-3.713-8.292-8.292-8.292s-8.292,3.712-8.292,8.292v2.289c0,7.756-1.51,15.161-4.226,21.958l-2.921-4.914    c-2.339-3.936-7.426-5.229-11.364-2.89c-3.937,2.339-5.23,7.428-2.89,11.364l7.497,12.612    c-8.468,10.084-20.211,17.328-33.583,20.058c-15.352-3.135-28.561-12.214-37.124-24.717l15.939-14.538    c3.384-3.087,3.624-8.33,0.538-11.714c-3.086-3.384-8.332-3.624-11.714-0.538l-12.349,11.264    c-1.8-5.665-2.777-11.693-2.777-17.945v-2.289c0-4.579-3.713-8.292-8.292-8.292s-8.292,3.713-8.292,8.292v2.289    c0,24.02,11.217,45.456,28.674,59.388h-16.033c-28.329,0-51.376,23.047-51.376,51.376v1.297c-9.717-2.076-20.964-3.07-34.204-3.07    c-13.225,0-24.461,0.992-34.17,3.062v-1.289c0-28.329-23.047-51.376-51.376-51.376h-16.034    c17.457-13.931,28.674-35.368,28.674-59.388v-2.289c0-4.579-3.713-8.292-8.292-8.292c-4.579,0-8.292,3.712-8.292,8.292v2.289    c0,6.253-0.977,12.281-2.777,17.945l-12.349-11.264c-3.382-3.086-8.627-2.846-11.714,0.538c-3.087,3.383-2.846,8.628,0.538,11.714    l15.939,14.538c-8.563,12.502-21.772,21.582-37.124,24.717c-13.372-2.731-25.116-9.974-33.583-20.058l7.497-12.612    c2.341-3.937,1.046-9.025-2.89-11.364c-3.937-2.339-9.025-1.046-11.364,2.89l-2.921,4.914c-2.715-6.797-4.225-14.202-4.225-21.958    v-2.289c0-4.579-3.713-8.292-8.292-8.292s-8.292,3.712-8.292,8.292v2.289c0,23.756,10.967,44.992,28.097,58.935    C53.68,103.469,30.86,78.411,30.86,48.106v-2.289c0-4.579-3.713-8.292-8.292-8.292s-8.292,3.712-8.292,8.292v2.289    c0,7.4,1.082,14.547,3.065,21.314H8.292C3.713,69.42,0,73.133,0,77.712s3.713,8.292,8.292,8.292h16.154    c13.144,22.734,37.707,38.074,65.801,38.074h80.19c19.185,0,34.792,15.607,34.792,34.792v6.512    c-2.469,1.082-4.828,2.265-7.065,3.574c-11.094-2.258-43.911-7.603-73.023,0.943c-4.307,1.265-6.826,5.726-5.683,10.066    c1.755,6.666,16.767,60.56,45.299,69.975c1.164,31.008,10.172,60.018,25.677,82.312c2.99,4.297,6.161,8.253,9.487,11.871    l-8.743,121.464c-0.328,4.567,3.108,8.537,7.675,8.866c0.203,0.014,0.404,0.022,0.604,0.022c4.308,0,7.947-3.332,8.262-7.697    l7.843-108.972c12.379,8.496,26.119,12.989,40.42,12.989c14.299,0,28.037-4.492,40.415-12.987l7.843,108.97    c0.314,4.365,3.952,7.697,8.262,7.697c0.2,0,0.401-0.008,0.604-0.022c4.567-0.328,8.003-4.298,7.675-8.866l-8.742-121.459    c3.327-3.619,6.501-7.575,9.491-11.875c15.479-22.257,24.481-51.21,25.669-82.161c28.836-8.976,44.002-63.424,45.766-70.126    c1.143-4.34-1.376-8.803-5.683-10.066c-29.399-8.631-62.591-3.091-73.359-0.876c-2.263-1.33-4.652-2.53-7.153-3.627v-6.527    c0-19.185,15.607-34.792,34.792-34.792h80.19c28.094,0,52.657-15.341,65.801-38.074h16.153c4.579,0,8.292-3.713,8.292-8.292    C512,73.132,508.287,69.42,503.708,69.42z M255.983,173.679c3.661,0,7.209,0.074,10.643,0.237l-10.643,59.471l-10.643-59.471    C248.773,173.753,252.322,173.679,255.983,173.679z M137.91,183.86c15.624-3.012,31.973-2.156,43.679-0.742    c-9.666,11.886-15.153,27.933-16.58,48.559C153.526,223.443,143.321,200.431,137.91,183.86z M181.203,243.059    c0-45.375,17.653-62.269,47.595-67.432l17.456,97.537c-14.177,2.993-24.267,12.409-24.267,23.874    c0,11.848,10.776,21.511,25.703,24.154v32.332C210.345,347.371,181.203,300.182,181.203,243.059z M238.571,297.038    c0-3.3,6.944-8.291,17.412-8.291s17.412,4.991,17.412,8.291c0,3.301-6.944,8.292-17.412,8.292S238.571,300.339,238.571,297.038z     M374.513,183.86c-5.481,16.784-15.88,40.173-27.541,48.126c-1.393-20.743-6.868-36.876-16.556-48.815    C342.149,181.725,358.703,180.813,374.513,183.86z M330.761,243.059c0,57.124-29.142,104.313-66.488,110.465v-32.332    c14.927-2.643,25.703-12.306,25.703-24.154c0-11.464-10.091-20.88-24.267-23.874l17.456-97.537    C313.109,180.79,330.761,197.684,330.761,243.059z" fill="#073b61"/>
	</g>
</g>
<g>
	<g>
		<circle cx="302.418" cy="257.234" r="8.292" fill="#073b61"/>
	</g>
</g>
<g>
	<g>
		<circle cx="209.572" cy="257.234" r="8.292" fill="#073b61"/>
	</g>
</g>
<g>
</g>
<g>
</g>
<g>
</g>
<g>
</g>
<g>
</g>
<g>
</g>
<g>
</g>
<g>
</g>
<g>
</g>
<g>
</g>
<g>
</g>
<g>
</g>
<g>
</g>
<g>
</g>
<g>
</g>
</svg>
